<svg xmlns="http://www.w3.org/2000/svg" width="90" height="50" fill="none" viewBox="0 0 90 50"><path fill="#FFF" fill-rule="evenodd" d="M2.96 0a2.86 2.86 0 0 0-2.9 2.68 45 45 0 1 0 89.88 0A2.86 2.86 0 0 0 87.04 0H2.96Z" clip-rule="evenodd"/><ellipse cx="31.33" cy="23.36" fill="url(#a)" rx="8" ry="11" transform="rotate(-20.39 31.33 23.36)"/><ellipse cx="31.09" cy="22.85" fill="#A86540" rx=".5" ry="8" transform="rotate(-21.23 31.1 22.85)"/><ellipse cx="53.66" cy="13.45" fill="url(#b)" rx="8" ry="11" transform="rotate(27.58 53.66 13.45)"/><ellipse cx="53.5" cy="13.08" fill="#A86540" rx=".5" ry="8" transform="rotate(23.69 53.5 13.08)"/><defs><linearGradient id="a" x1="39.17" x2="23.84" y1="20.93" y2="24.84" gradientUnits="userSpaceOnUse"><stop stop-color="#6E4F37"/><stop offset=".4" stop-color="#523518"/></linearGradient><linearGradient id="b" x1="53.66" x2="53.66" y1="2.45" y2="24.45" gradientUnits="userSpaceOnUse"><stop stop-color="#6E4F37"/><stop offset="1" stop-color="#361B07" stop-opacity=".94"/><stop offset="1" stop-color="#544940" stop-opacity="0"/></linearGradient></defs></svg>